# xmcd
#
# Track frame offsets:
#	150
#	67201
#	107736
#	143792
#	152953
#	177901
#	213352
#	259864
#	303095
#
# Disc length: 4458 seconds
#
# Revision: 1
# Processed by: cddbd v1.5.2PL0 Copyright (c) Steve Scherf et al.
# Submitted via: audiograbber 1.83.01
#
DISCID=81116809
DTITLE=Grateful Dead - 94-06-14 Seattle Centre Memorial Stadium, Seattle WA
DYEAR=1900
DGENRE=
TTITLE0=Shakedown Street
TTITLE1=Little Red Rooster
TTITLE2=Loose Lucy
TTITLE3=Beer Barrel Polka Tuning
TTITLE4=When I Paint My Masterpiece
TTITLE5=Althea
TTITLE6=Eternity
TTITLE7=Victim Or The Crime
TTITLE8=Lazy River Road
EXTD=
EXTT0=
EXTT1=
EXTT2=
EXTT3=
EXTT4=
EXTT5=
EXTT6=
EXTT7=
EXTT8=
PLAYORDER=
